<svg width="187" height="187" viewBox="0 0 187 187" fill="none" xmlns="http://www.w3.org/2000/svg">
<g clip-path="url(#clip0_19_52)">
<path d="M116.381 116.579C122.734 130.71 137.734 133.205 150.382 135.649C168.884 139.22 187 156.68 187 176.467V184.531C187 185.89 185.89 187 184.526 187H2.47446C1.11031 187 0 185.89 0 184.531V177.235C0 153.46 19.2413 139.416 38.6823 136.816C52.8257 134.927 64.5961 133.009 69.5742 115.924C70.8624 117.051 72.216 118.189 73.5947 119.415C86.4791 130.862 100.996 131.359 113.409 119.397C114.429 118.411 115.426 117.482 116.381 116.579Z" fill="#13B323"/>
<path d="M116.381 116.583C119.705 123.973 125.394 128.183 131.87 130.862C109.962 146.926 79.7157 145.997 57.1833 132.269C64.0085 128.596 67.4263 123.277 69.5674 115.92C70.8552 117.047 72.2124 118.186 73.5948 119.415C86.4792 130.862 100.996 131.359 113.409 119.397C114.429 118.411 115.427 117.482 116.381 116.583Z" fill="#D2A75F"/>
<path d="M94.7156 142.734C81.6135 142.792 68.4351 139.122 57.1833 132.269C63.9829 128.611 67.4881 123.208 69.5706 115.92C70.8625 117.047 72.2124 118.186 73.5948 119.415C80.3619 125.427 87.5858 128.418 94.7156 128.172V142.734Z" fill="#DBB26F"/>
<path fill-rule="evenodd" clip-rule="evenodd" d="M49.2112 77.4375C50.9114 72.5743 54.8658 74.138 60.4984 76.1922L60.4466 75.9491L60.4984 75.9764C64.5175 33.8288 91.6887 58.0213 112.041 35.8428C122.735 41.1053 129.65 51.5755 127.88 74.9216L127.937 74.8764C127.772 76.0964 127.585 77.3134 127.376 78.5267C132.498 74.6501 139.882 75.0107 137.56 83.6019L134.387 92.5826C133.629 94.732 133.121 95.5124 130.402 95.3664C129.202 95.3025 127.994 94.8397 126.789 94.0444C127.901 107.297 121.464 111.621 113.407 119.393C100.997 131.36 86.4786 130.866 73.5979 119.414C66.0529 112.708 59.3523 108.635 59.0178 94.8477C57.0616 95.4467 55.212 95.5555 53.5969 94.6379C50.3778 92.8071 49.2054 87.4789 49.0297 84.0669C48.9592 82.6949 49.018 78.8347 49.2112 77.4375Z" fill="#E9BE79"/>
<path fill-rule="evenodd" clip-rule="evenodd" d="M49.2119 77.4375C50.9139 72.5736 54.8647 74.1394 60.4988 76.1925L60.4484 75.9498L60.4988 75.9772C63.4349 45.1698 78.7412 49.8023 94.714 45.8677V128.171C87.5864 128.421 80.365 125.432 73.5972 119.414C66.0525 112.708 59.3512 108.636 59.0192 94.8484C57.063 95.4459 55.2127 95.5554 53.598 94.6378C48.9095 91.9712 48.5319 82.3288 49.2119 77.4375Z" fill="#F2CD8C"/>
<path fill-rule="evenodd" clip-rule="evenodd" d="M39.4727 33.8682C64.3265 3.17655 92.9733 -13.5165 114.483 13.7866C140.844 15.1699 149.988 58.1527 127.879 74.922C129.65 51.5759 122.735 41.1049 112.041 35.8432C91.6887 58.0217 64.5171 33.8284 60.4988 75.9761L50.7445 70.8994C49.7759 58.8111 52.6094 37.8393 39.4727 33.8682Z" fill="#123416"/>
</g>
<defs>
<clipPath id="clip0_19_52">
<rect width="187" height="187" fill="white"/>
</clipPath>
</defs>
</svg>
