<svg width="400" height="400" viewBox="0 0 400 400" fill="none" xmlns="http://www.w3.org/2000/svg">
<path fill-rule="evenodd" clip-rule="evenodd" d="M119.701 0C53.4264 0 -0.299438 53.7258 -0.299438 120V280C-0.299438 346.274 53.4264 400 119.701 400H279.701C345.975 400 399.701 346.274 399.701 280V120C399.701 53.7258 345.975 0 279.701 0H119.701ZM365.242 149.369V211.466H355.761V152.583L308.224 168.708L198.972 205.755L89.7138 168.708L27.7006 147.677L198.972 90L370.235 147.677L365.242 149.369ZM308.224 186.311L201.999 222.331C201.024 222.667 199.995 222.833 198.972 222.833C197.946 222.833 196.91 222.667 195.935 222.331L89.7143 186.311V275.394H89.8267L89.5855 276.618C89.5855 287.217 138.566 310.878 198.908 310.878C259.247 310.878 308.099 287.217 308.099 276.618L307.849 275.394H308.224V186.311ZM349.301 226.015V262.268C349.301 268.454 354.309 273.467 360.502 273.467C366.689 273.467 371.701 268.454 371.701 262.268V226.015C371.701 222.952 370.466 220.179 368.478 218.159L369.898 218.159V211.466H365.242H355.761H351.101V218.159L352.531 218.159C350.541 220.179 349.301 222.952 349.301 226.015Z" fill="#13B323"/>
</svg>
